<?xml version="1.0" standalone="no"?>
<!DOCTYPE svg PUBLIC "-//W3C//DTD SVG 20010904//EN"
 "http://www.w3.org/TR/2001/REC-SVG-20010904/DTD/svg10.dtd">
<svg version="1.0" xmlns="http://www.w3.org/2000/svg"
 width="800.000000pt" height="800.000000pt" viewBox="0 0 800.000000 800.000000"
 preserveAspectRatio="xMidYMid meet">
<metadata>
Created by potrace 1.14, written by Peter Selinger 2001-2017
</metadata>
<g transform="translate(0.000000,800.000000) scale(0.100000,-0.100000)"
fill="#000000" stroke="none">
<path d="M0 4000 l0 -4000 4000 0 4000 0 0 4000 0 4000 -4000 0 -4000 0 0
-4000z m3475 2222 c-47 -9 -30 -18 36 -18 38 -1 72 -3 75 -6 2 -3 24 -3 47 -1
30 3 38 1 27 -6 -9 -7 24 -9 105 -7 92 2 128 0 153 -12 l32 -16 0 -289 0 -289
-77 6 c-491 40 -525 45 -614 81 -131 53 -279 188 -363 332 -4 8 5 18 24 28 18
9 30 23 30 35 0 11 10 24 23 30 21 11 21 10 3 -4 -17 -14 -17 -16 -3 -16 9 0
21 9 27 20 9 17 60 51 75 50 3 0 18 6 33 14 29 15 48 16 69 3 7 -5 19 2 29 18
9 14 21 22 27 18 21 -13 48 -10 145 17 53 15 102 25 107 22 6 -4 1 -8 -10 -10z
m922 -138 c322 -59 645 -204 918 -413 84 -64 266 -242 338 -331 220 -273 375
-607 444 -958 24 -125 27 -158 27 -382 1 -213 -2 -260 -22 -362 -12 -64 -22
-120 -22 -125 0 -4 17 8 38 27 30 27 29 26 -4 -7 -24 -24 -41 -43 -40 -43 2 0
-20 -71 -49 -157 -30 -88 -50 -162 -45 -167 5 -5 20 -8 34 -8 22 0 23 -2 10
-15 -13 -14 -17 -13 -34 2 -23 21 -22 21 -45 -24 l-17 -34 -19 24 c-11 13 -38
52 -61 87 -28 42 -44 59 -49 50 -4 -7 -36 -126 -71 -265 -49 -197 -66 -253
-78 -253 -16 0 -34 68 -290 1125 -65 267 -130 554 -130 574 0 5 32 17 70 26
l70 17 -34 64 c-18 35 -31 64 -28 64 3 0 25 -12 49 -26 25 -14 47 -24 49 -21
3 2 -15 80 -39 171 -43 165 -44 168 -102 241 -55 68 -63 74 -105 80 -57 8 -66
13 -80 49 -9 23 -7 31 6 41 16 11 15 12 -4 17 -13 4 -32 29 -50 65 -87 172
-201 246 -442 287 -120 20 -365 46 -447 46 -101 0 -93 -26 -93 293 l0 280 107
-7 c58 -4 166 -18 240 -32z m-1509 -244 c52 -64 147 -153 207 -192 l51 -33
-58 -53 c-149 -138 -262 -412 -424 -1022 -207 -780 -267 -971 -379 -1206 -54
-114 -138 -254 -153 -254 -5 0 -16 16 -25 36 -15 32 -20 34 -34 22 -15 -12
-15 -11 -3 9 12 19 12 27 -1 54 -13 27 -17 29 -22 15 -4 -10 -3 -15 3 -11 6 4
7 -1 3 -11 -5 -14 -8 -13 -19 7 -7 13 -10 27 -8 31 10 16 -17 7 -36 -12 -34
-34 -46 -22 -13 13 l31 32 -22 63 c-18 53 -23 61 -36 50 -12 -11 -12 -11 -1 4
10 14 9 31 -8 100 -12 46 -24 104 -27 131 -4 26 -9 47 -13 47 -3 0 -6 15 -7
33 -1 17 -6 104 -12 192 -8 125 -7 188 4 290 8 83 10 133 4 139 -14 14 -12 27
2 24 6 -2 15 16 20 42 5 25 12 52 15 60 3 8 7 29 8 45 2 17 9 44 16 60 7 17
11 35 11 41 -1 6 58 62 132 125 74 63 133 115 132 117 -2 1 -47 -13 -101 -33
-53 -19 -99 -35 -101 -35 -7 0 36 100 85 197 80 161 246 399 340 487 27 26 32
27 48 15 17 -13 17 -13 4 4 -13 16 -9 23 35 68 27 28 77 73 111 101 54 44 61
54 50 67 -11 14 -10 14 6 2 9 -8 20 -11 24 -7 4 3 -2 13 -13 21 -10 8 -15 15
-10 15 5 0 3 6 -3 14 -9 10 -4 18 23 37 24 16 32 27 25 35 -7 8 -2 18 14 31
24 18 24 20 7 41 -10 12 -24 22 -32 22 -7 0 5 11 26 25 l39 23 25 -36 c13 -20
41 -57 60 -82z m1062 -712 l0 -353 -30 -59 c-38 -75 -38 -96 0 -444 28 -254
30 -300 30 -640 l0 -366 -42 41 c-49 46 -77 63 -108 63 -32 0 -89 -29 -101
-51 -20 -39 -97 -374 -92 -402 3 -15 19 -41 35 -57 24 -25 38 -30 77 -30 78 0
99 24 131 149 l11 44 45 -44 44 -43 0 -267 0 -266 -167 -14 c-111 -9 -170 -11
-174 -4 -4 5 -13 36 -20 68 -7 32 -15 60 -19 62 -8 5 -92 -15 -103 -25 -4 -4
4 -54 19 -113 22 -87 30 -106 48 -111 29 -8 145 -6 246 4 47 4 86 7 88 5 1 -1
5 -32 9 -69 6 -69 30 -116 59 -116 12 0 14 -61 14 -406 l0 -405 -52 28 c-79
41 -198 165 -236 243 -35 73 -447 1378 -438 1387 3 3 39 8 81 11 l75 5 0 59 0
60 -72 -6 c-178 -14 -504 -28 -550 -23 -156 19 -291 152 -317 313 -9 56 -7 66
40 204 28 80 77 236 110 348 85 287 423 1276 456 1331 63 109 209 209 334 230
30 5 170 9 312 10 l257 1 0 -352z m300 322 c63 -5 170 -17 238 -26 105 -15
131 -22 181 -52 67 -39 149 -107 140 -116 -3 -3 -43 8 -89 25 l-84 30 -94 -36
c-52 -19 -96 -34 -97 -33 -2 2 -17 27 -35 56 -18 29 -36 50 -40 45 -4 -4 -37
-123 -74 -263 -36 -140 -69 -265 -72 -277 l-6 -22 53 21 c84 34 247 31 353 -6
44 -15 87 -32 95 -37 13 -8 12 -9 -4 -4 -65 23 -459 15 -627 -12 l-38 -6 0
362 0 361 43 0 c23 0 94 -5 157 -10z m-2043 -232 c-3 -7 -5 -2 -5 12 0 14 2
19 5 13 2 -7 2 -19 0 -25z m2651 -83 c2 -2 -33 -20 -77 -41 -45 -20 -78 -40
-74 -44 4 -4 105 -26 223 -49 l215 -43 48 -51 c44 -48 57 -75 73 -156 l7 -33
-81 41 c-45 23 -84 41 -88 41 -3 0 26 -61 65 -135 51 -97 66 -135 55 -135 -8
0 -48 27 -87 61 -170 143 -376 259 -533 300 -50 13 -112 20 -170 21 l-92 1 29
106 c16 58 29 109 29 114 0 4 6 7 13 7 8 0 61 17 118 39 l104 38 110 -39 c60
-21 111 -41 113 -43z m-2851 -257 c-3 -7 -5 -2 -5 12 0 14 2 19 5 13 2 -7 2
-19 0 -25z m-5 -93 c-8 -50 -18 -48 -16 3 3 71 5 79 14 52 4 -14 5 -38 2 -55z
m-25 -7 c-3 -8 -6 -5 -6 6 -1 11 2 17 5 13 3 -3 4 -12 1 -19z m2678 -89 c184
-23 335 -82 424 -168 l48 -46 27 -140 c15 -77 63 -288 107 -469 43 -181 82
-346 85 -367 8 -51 -22 -113 -93 -190 -63 -67 -182 -134 -260 -144 -72 -10
-308 -47 -311 -50 -1 -1 7 -145 19 -319 11 -175 19 -319 17 -320 -3 -3 -633
-56 -655 -56 -10 0 -13 39 -13 164 l0 163 112 7 c62 4 114 9 116 11 8 8 -30
64 -55 80 -29 19 -99 25 -145 12 l-28 -7 0 426 0 427 53 -51 c128 -120 309
-159 471 -102 98 35 191 79 224 106 40 31 79 110 88 176 4 26 13 49 20 52 15
6 20 36 6 36 -4 0 -6 23 -5 50 3 46 1 50 -19 51 -17 1 -19 2 -5 6 26 7 22 43
-5 44 -17 1 -19 2 -5 6 21 6 23 43 1 43 -24 0 -54 -19 -54 -35 0 -8 4 -15 9
-15 5 0 7 -9 4 -20 -4 -15 0 -20 13 -20 14 0 15 -3 6 -12 -7 -7 -9 -27 -5 -55
4 -28 -1 -67 -12 -110 -15 -55 -27 -76 -64 -113 -39 -39 -62 -51 -157 -83 -86
-29 -127 -37 -181 -37 -146 0 -263 61 -354 184 l-29 39 0 228 c0 219 1 228 20
234 23 7 25 16 8 33 -8 8 -9 12 -1 12 6 0 13 -6 16 -12 3 -10 8 -10 16 -2 9 8
9 17 0 38 -14 29 -45 32 -43 3 1 -9 -2 -14 -7 -11 -5 3 -9 72 -9 153 l0 149
118 12 c64 6 126 13 137 14 54 8 270 5 350 -5z m-2795 -414 c-19 -20 -36 -31
-38 -25 -5 14 28 51 39 45 4 -3 10 -1 14 5 3 5 9 10 13 10 3 0 -10 -16 -28
-35z m17 -527 c-3 -7 -5 -2 -5 12 0 14 2 19 5 13 2 -7 2 -19 0 -25z m-10 -40
c-3 -8 -6 -5 -6 6 -1 11 2 17 5 13 3 -3 4 -12 1 -19z m-16 -45 c-12 -20 -14
-14 -5 12 4 9 9 14 11 11 3 -2 0 -13 -6 -23z m4319 -27 c0 -2 -8 -10 -17 -17
-16 -13 -17 -12 -4 4 13 16 21 21 21 13z m-4230 -280 c0 -2 -8 -10 -17 -17
-16 -13 -17 -12 -4 4 13 16 21 21 21 13z m1324 -969 l146 -469 -2 -712 -3
-712 -533 92 -532 92 -112 62 c-232 128 -452 279 -631 434 l-97 84 807 801
c443 441 807 800 808 799 2 -2 69 -214 149 -471z m2357 -20 l26 -102 11 40 c7
22 12 46 12 53 0 6 4 12 9 12 8 0 288 -287 758 -776 l202 -211 -67 -65 c-92
-89 -215 -195 -303 -260 l-74 -55 -740 -132 c-407 -72 -744 -131 -748 -131 -9
0 -3 52 8 69 3 6 1 11 -5 11 -6 0 -1 18 10 41 l21 41 -21 -7 c-20 -6 -21 -5
-11 14 8 15 8 21 1 21 -7 0 -7 7 1 21 9 17 8 20 -1 14 -10 -6 -11 -1 -6 21 11
48 13 84 4 84 -14 0 -9 29 9 57 17 26 17 27 -1 20 -18 -7 -18 -6 -1 19 9 15
12 24 7 20 -6 -4 0 14 14 38 25 44 25 44 3 39 -19 -5 -20 -4 -9 17 9 17 9 21
0 15 -9 -5 -10 -1 -5 14 3 12 2 21 -3 21 -6 0 14 24 43 54 108 112 132 203
116 451 -12 183 -11 207 8 244 12 21 11 23 -3 18 -20 -8 -20 2 -1 30 23 32 56
115 44 107 -11 -6 31 74 55 105 8 11 8 13 -1 8 -13 -8 16 64 49 119 11 18 17
38 14 43 -4 5 -1 13 5 17 8 5 9 3 4 -6 -5 -8 -4 -11 1 -7 6 3 10 18 9 34 0 17
26 74 68 147 37 65 65 121 63 124 -3 2 -1 13 4 22 8 15 38 -11 202 -176 l193
-195 26 -102z m39 349 c0 -3 -4 -8 -10 -11 -5 -3 -10 -1 -10 4 0 6 5 11 10 11
6 0 10 -2 10 -4z m-926 -468 c4 -62 14 -216 22 -343 16 -243 13 -284 -18 -352
-79 -170 -451 -338 -657 -297 l-31 7 0 452 0 453 91 8 c93 7 119 19 119 53 0
37 -25 44 -120 38 -85 -6 -90 -6 -90 13 0 11 3 20 8 21 4 0 147 13 317 28 171
16 320 29 331 30 21 1 22 -5 28 -111z m-586 -1118 l53 0 -3 -32 -3 -33 -72 -1
-73 -2 0 40 c0 37 2 40 23 34 12 -3 46 -6 75 -6z"/>
<path d="M5917 3119 c4 -15 8 -17 14 -8 8 14 3 29 -11 29 -4 0 -6 -9 -3 -21z"/>
<path d="M3269 4846 c-110 -39 -204 -117 -261 -217 -14 -24 -79 -163 -143
-308 -113 -252 -118 -267 -123 -346 -11 -190 96 -361 268 -426 80 -30 357 -62
426 -50 122 23 226 114 263 231 14 47 83 890 79 963 -7 100 -58 143 -197 164
-135 20 -235 17 -312 -11z"/>
<path d="M2696 3677 c-40 -23 -58 -47 -34 -47 19 0 99 55 91 63 -9 10 -14 9
-57 -16z"/>
<path d="M2733 3617 c-23 -17 -42 -34 -42 -37 0 -3 6 -14 15 -25 14 -19 16
-18 55 21 27 28 38 45 33 57 -8 23 -12 22 -61 -16z"/>
<path d="M2791 3549 c-32 -39 -32 -41 -15 -60 9 -10 20 -19 23 -19 3 0 21 21
40 46 33 43 33 45 15 59 -26 19 -25 20 -63 -26z"/>
<path d="M2867 3490 c-27 -48 -27 -49 -8 -59 28 -16 28 -16 55 37 24 47 24 49
5 60 -10 7 -20 12 -21 12 -2 0 -16 -22 -31 -50z"/>
<path d="M2949 3453 c-19 -45 -19 -48 -2 -60 9 -7 21 -12 27 -10 12 4 37 88
31 105 -10 27 -36 10 -56 -35z"/>
<path d="M3046 3463 c-3 -10 -8 -34 -11 -55 -6 -31 -4 -37 15 -43 27 -9 35 3
44 58 5 28 3 43 -6 49 -21 13 -36 9 -42 -9z"/>
<path d="M3136 3448 c-13 -49 -7 -86 15 -93 27 -9 30 -4 37 51 3 33 1 49 -9
55 -23 14 -36 10 -43 -13z"/>
<path d="M3237 3443 c-3 -10 -9 -37 -12 -60 -6 -41 -6 -43 19 -43 21 0 26 6
31 34 4 18 5 44 3 57 -4 29 -34 37 -41 12z"/>
<path d="M3326 3427 c-9 -34 -7 -97 3 -97 19 0 30 103 12 114 -5 3 -11 -4 -15
-17z"/>
<path d="M4350 4471 c0 -30 11 -51 26 -51 9 0 14 12 14 35 0 28 -4 35 -20 35
-13 0 -20 -7 -20 -19z"/>
<path d="M4400 4455 c0 -28 4 -35 20 -35 16 0 20 7 20 35 0 28 -4 35 -20 35
-16 0 -20 -7 -20 -35z"/>
<path d="M4250 4462 c0 -29 25 -56 41 -46 8 5 22 7 32 6 13 -3 17 4 17 27 0
30 -1 31 -45 31 -37 0 -45 -3 -45 -18z"/>
<path d="M4450 4451 c0 -34 18 -51 31 -30 17 26 10 59 -11 59 -15 0 -20 -7
-20 -29z"/>
<path d="M4203 4449 c-4 -14 -8 -17 -13 -8 -6 9 -16 8 -44 -5 -39 -18 -43 -31
-21 -60 17 -23 39 -11 31 18 -5 20 -4 20 9 2 18 -23 48 -15 38 11 -6 16 -5 16
11 4 23 -19 39 -2 30 33 -7 31 -34 35 -41 5z"/>
<path d="M4502 4438 c2 -21 8 -33 18 -33 8 0 17 -3 20 -6 12 -15 112 -59 120
-54 5 3 7 0 4 -8 -9 -26 29 -30 49 -6 21 27 17 44 -11 43 -12 0 -18 4 -15 13
7 18 -24 28 -41 14 -12 -10 -13 -8 -9 10 5 19 3 21 -20 17 -19 -4 -27 -1 -27
8 0 8 -9 14 -20 14 -11 0 -20 5 -20 10 0 6 -12 10 -26 10 -23 0 -25 -3 -22
-32z"/>
<path d="M4715 4320 c-14 -15 -16 -23 -7 -32 14 -14 65 17 59 35 -6 20 -32 19
-52 -3z"/>
<path d="M4750 4285 c-18 -19 -21 -28 -12 -37 15 -15 64 17 60 39 -5 26 -22
25 -48 -2z"/>
<path d="M4776 4245 c-19 -14 -19 -15 0 -50 14 -27 23 -34 39 -29 18 4 18 4 3
-6 -27 -17 -23 -44 5 -36 12 3 28 6 35 6 6 0 12 9 12 20 0 11 -6 20 -14 20 -9
0 -12 8 -8 25 2 14 0 25 -6 25 -5 0 -12 9 -15 20 -6 23 -24 25 -51 5z"/>
<path d="M4385 4171 c-107 -26 -178 -117 -177 -227 1 -137 139 -247 270 -215
67 17 116 53 149 108 39 67 40 158 1 224 -32 54 -86 94 -148 108 -51 12 -53
12 -95 2z m163 -68 c128 -98 92 -293 -63 -338 -127 -37 -245 52 -245 184 0
161 181 251 308 154z"/>
<path d="M4387 4058 c-20 -7 -26 -15 -22 -28 8 -26 -5 -50 -32 -61 -19 -7 -22
-13 -17 -36 11 -45 23 -63 57 -83 39 -24 68 -25 112 -4 63 29 83 126 38 177
-19 21 -73 48 -95 46 -7 0 -26 -5 -41 -11z"/>
<path d="M4203 1486 c-75 -15 -103 -37 -103 -81 0 -31 19 -56 51 -67 13 -5 80
3 146 17 31 7 56 57 44 87 -19 50 -53 60 -138 44z"/>
</g>
</svg>
